<svg width="24" height="32" viewBox="0 0 24 32" fill="none" xmlns="http://www.w3.org/2000/svg">
<path d="M23.5837 18.968V7.24018V7.23946V0.723982C23.5837 0.324199 23.2595 0 22.8598 0H4.03623C2.04021 0 0.416321 1.62389 0.416321 3.61991V28.3801C0.416321 30.3761 2.04021 32 4.03623 32H22.8598C23.2595 32 23.5837 31.6758 23.5837 31.276C23.5837 30.8762 23.2595 30.552 22.8598 30.552H22.4516V26.2081H22.8598C23.2595 26.2081 23.5837 25.8839 23.5837 25.4842V18.9687V18.968ZM22.1358 24.7602H18.0918L22.1358 20.7162V24.7602ZM22.1358 5.49191L18.0918 1.44796H22.1358V5.49191ZM1.86428 3.61991C1.86428 2.4223 2.83862 1.44796 4.03623 1.44796V18.6707C4.03623 19.0705 4.36043 19.3947 4.76021 19.3947C5.15999 19.3947 5.48419 19.0705 5.48419 18.6707V1.44796H16.044L22.1358 7.53976V18.6685L16.044 24.7602H5.48419V21.1403C5.48419 20.7405 5.15999 20.4163 4.76021 20.4163C4.36043 20.4163 4.03623 20.7405 4.03623 21.1403V24.7602C3.22204 24.7602 2.46968 25.0304 1.86428 25.4858V3.61991ZM21.0036 30.552H4.03623C2.83862 30.552 1.86428 29.5777 1.86428 28.3801C1.86428 27.1825 2.83862 26.2081 4.03623 26.2081H21.0036V30.552Z" fill="black"/>
</svg>
