<svg width="25" height="32" viewBox="0 0 25 32" fill="none" xmlns="http://www.w3.org/2000/svg">
<path d="M20.3125 2.5H15.5984C15.0823 1.04492 13.6921 0 12.0625 0C10.4329 0 9.04272 1.04492 8.52661 2.5H3.75C1.68213 2.5 0 4.18213 0 6.25V28.25C0 30.3179 1.68213 32 3.75 32H20.3164C22.3821 31.9978 24.0625 30.3157 24.0625 28.25V6.25C24.0625 4.18213 22.3804 2.5 20.3125 2.5ZM10.8125 5V3.75C10.8125 3.06079 11.3733 2.5 12.0625 2.5C12.7517 2.5 13.3125 3.06079 13.3125 3.75V5H15.8125V7.4375H8.3125V5H10.8125ZM21.5625 28.25C21.5625 28.9385 21.0022 29.4993 20.3152 29.5H3.75C3.06079 29.5 2.5 28.9392 2.5 28.25V6.25C2.5 5.56079 3.06079 5 3.75 5H5.8125V9.9375H18.3125V5H20.3125C21.0017 5 21.5625 5.56079 21.5625 6.25V28.25ZM16.8254 14.3774L18.6743 16.0601L10.6687 24.8569L5.38086 19.7422L7.11914 17.9453L10.5544 21.2681L16.8254 14.3774Z" fill="black"/>
</svg>
