<svg width="26" height="32" viewBox="0 0 26 32" fill="none" xmlns="http://www.w3.org/2000/svg">
<path d="M16.0255 13.068C15.8494 12.6606 15.4488 12.3973 15.0048 12.3973C15.0032 12.3973 10.8996 12.4043 10.8773 12.4043C10.4837 12.4043 10.1346 12.6971 9.97423 13.068L7.83183 18.0223C7.71399 18.2947 7.70934 18.5968 7.81868 18.8728C7.92803 19.1488 8.1383 19.3657 8.41078 19.4836C8.55131 19.5443 8.69953 19.5751 8.85152 19.5751C9.2954 19.5751 9.69598 19.3119 9.8721 18.9046L10.2621 18.0026V27.4557C10.2621 28.1306 10.8112 28.6796 11.4861 28.6796C12.1611 28.6796 12.7103 28.1305 12.7103 27.4557V21.1531H13.2293V27.4557C13.2293 28.1306 13.7784 28.6796 14.4535 28.6796C15.1284 28.6796 15.6775 28.1305 15.6775 27.4557V17.8634L16.1277 18.9045C16.3039 19.3118 16.7045 19.575 17.1482 19.575C17.3002 19.575 17.4484 19.5442 17.5889 19.4835C17.8614 19.3657 18.0717 19.1488 18.1811 18.8727C18.2904 18.5968 18.2857 18.2947 18.1679 18.0222L16.0255 13.068Z" fill="black"/>
<path d="M12.8606 11.9899C14.405 11.9899 15.6614 10.7333 15.6614 9.18864C15.6614 7.64387 14.4049 6.38721 12.8606 6.38721C11.3159 6.38721 10.0592 7.64395 10.0592 9.18864C10.0591 10.7333 11.3159 11.9899 12.8606 11.9899Z" fill="black"/>
<path d="M24.4831 6.31594L19.4475 1.31622C18.6791 0.553538 17.3357 0 16.2532 0H2.83281C1.37382 0 0.186737 1.18708 0.186737 2.64608V29.3538C0.186737 30.8129 1.37382 32 2.83281 32H23.1669C24.626 32 25.8132 30.8129 25.8132 29.3538V9.51026C25.8132 8.42411 25.2536 7.08055 24.4831 6.31594ZM2.83217 29.3538L2.83281 2.64544H16.2532C16.2978 2.64544 16.3468 2.64969 16.3987 2.65706V7.44706C16.3987 8.90614 17.5858 10.0932 19.0448 10.0932H23.1677L23.1672 29.3546L2.83217 29.3538Z" fill="black"/>
</svg>
