<svg width="32" height="26" viewBox="0 0 32 26" fill="none" xmlns="http://www.w3.org/2000/svg">
<path d="M30.9354 4.33075C30.2966 3.66155 29.4145 3.26612 28.4106 3.26612H23.3612V3.20528C23.3612 2.44482 23.057 1.71478 22.5399 1.22809C22.0228 0.710982 21.3232 0.406799 20.5627 0.406799H11.4373C10.6464 0.406799 9.94677 0.710982 9.42966 1.22809C8.91255 1.7452 8.60837 2.44482 8.60837 3.20528V3.26612H3.58935C2.58555 3.26612 1.70342 3.66155 1.06464 4.33075C0.425856 4.96954 0 5.88208 0 6.85547V22.0038C0 23.0076 0.395437 23.8897 1.06464 24.5285C1.70342 25.1673 2.61597 25.5931 3.58935 25.5931H28.4106C29.4145 25.5931 30.2966 25.1977 30.9354 24.5285C31.5741 23.8897 32 22.9771 32 22.0038V6.85547C32 5.85167 31.6046 4.96954 30.9354 4.33075ZM30.4183 22.0038H30.3878C30.3878 22.5513 30.1749 23.038 29.8099 23.403C29.4449 23.768 28.9582 23.9809 28.4106 23.9809H3.58935C3.04183 23.9809 2.55513 23.768 2.19011 23.403C1.8251 23.038 1.61217 22.5513 1.61217 22.0038V6.85547C1.61217 6.30794 1.8251 5.82125 2.19011 5.45623C2.55513 5.09121 3.04183 4.87828 3.58935 4.87828H9.46008C9.91635 4.87828 10.2814 4.51326 10.2814 4.05699V3.17486C10.2814 2.84026 10.403 2.53608 10.616 2.32315C10.8289 2.11022 11.1331 1.98855 11.4677 1.98855H20.5627C20.8973 1.98855 21.2015 2.11022 21.4144 2.32315C21.6274 2.53608 21.7491 2.84026 21.7491 3.17486V4.05699C21.7491 4.51326 22.1141 4.87828 22.5703 4.87828H28.4411C28.9886 4.87828 29.4753 5.09121 29.8403 5.45623C30.2053 5.82125 30.4183 6.30794 30.4183 6.85547V22.0038Z" fill="black"/>
<path d="M16 6.94672C13.9315 6.94672 12.0456 7.79843 10.7072 9.13683C9.33838 10.5057 8.51709 12.3612 8.51709 14.4296C8.51709 16.4981 9.3688 18.384 10.7072 19.7224C12.076 21.0912 13.9315 21.9125 16 21.9125C18.0684 21.9125 19.9544 21.0608 21.2928 19.7224C22.6616 18.3536 23.4829 16.4981 23.4829 14.4296C23.4829 12.3612 22.6312 10.4752 21.2928 9.13683C19.9544 7.79843 18.0684 6.94672 16 6.94672ZM20.1369 18.5969C19.0722 19.6311 17.6122 20.3003 16 20.3003C14.3878 20.3003 12.9277 19.6311 11.8631 18.5969C10.7985 17.5323 10.1597 16.0722 10.1597 14.46C10.1597 12.8479 10.8289 11.3878 11.8631 10.3231C12.9277 9.25851 14.3878 8.61972 16 8.61972C17.6122 8.61972 19.0722 9.28892 20.1369 10.3231C21.2015 11.3878 21.8403 12.8479 21.8403 14.46C21.8707 16.0722 21.2015 17.5323 20.1369 18.5969Z" fill="black"/>
<path d="M26.8289 9.89731C27.652 9.89731 28.3194 9.22999 28.3194 8.40682C28.3194 7.58364 27.652 6.91632 26.8289 6.91632C26.0057 6.91632 25.3384 7.58364 25.3384 8.40682C25.3384 9.22999 26.0057 9.89731 26.8289 9.89731Z" fill="black"/>
</svg>
